<svg width="28" height="28" viewBox="0 0 28 28" fill="none" xmlns="http://www.w3.org/2000/svg">
<g id="download">
<path id="Vector" fill-rule="evenodd" clip-rule="evenodd" d="M14 3.66675C14.5523 3.66675 15 4.11446 15 4.66675V15.0859L17.9595 12.1263C18.3501 11.7358 18.9832 11.7358 19.3738 12.1263C19.7643 12.5168 19.7643 13.15 19.3738 13.5405L14.7071 18.2072C14.5196 18.3947 14.2652 18.5001 14 18.5001C13.7348 18.5001 13.4804 18.3947 13.2929 18.2072L8.62622 13.5405C8.23569 13.15 8.23569 12.5168 8.62622 12.1263C9.01674 11.7358 9.6499 11.7358 10.0404 12.1263L13 15.0859V4.66675C13 4.11446 13.4477 3.66675 14 3.66675ZM4.66666 16.5001C5.21894 16.5001 5.66666 16.9478 5.66666 17.5001C5.66666 18.6322 5.6715 19.0522 5.73711 19.3821C6.02643 20.8366 7.16346 21.9736 8.61799 22.263C8.94783 22.3286 9.36788 22.3334 10.5 22.3334H17.5C18.6321 22.3334 19.0521 22.3286 19.382 22.263C20.8365 21.9736 21.9735 20.8366 22.2629 19.3821C22.3285 19.0522 22.3333 18.6322 22.3333 17.5001C22.3333 16.9478 22.781 16.5001 23.3333 16.5001C23.8856 16.5001 24.3333 16.9478 24.3333 17.5001C24.3333 17.5413 24.3333 17.582 24.3333 17.622C24.3335 18.5891 24.3336 19.2233 24.2244 19.7723C23.7773 22.0202 22.0201 23.7774 19.7722 24.2245C19.2232 24.3337 18.589 24.3336 17.6219 24.3334C17.5819 24.3334 17.5412 24.3334 17.5 24.3334H10.5C10.4588 24.3334 10.4181 24.3334 10.378 24.3334C9.41103 24.3336 8.7768 24.3337 8.22781 24.2245C5.9799 23.7774 4.22268 22.0202 3.77554 19.7723C3.66634 19.2233 3.66646 18.5891 3.66664 17.6221C3.66665 17.582 3.66666 17.5413 3.66666 17.5001C3.66666 16.9478 4.11437 16.5001 4.66666 16.5001Z" fill="#5D31FF"/>
</g>
</svg>
