<svg width="27" height="22" viewBox="0 0 27 22" fill="none" xmlns="http://www.w3.org/2000/svg">
<g id="Group">
<path id="Vector" fill-rule="evenodd" clip-rule="evenodd" d="M5.59999 8C6.44868 8 7.26261 7.66286 7.86273 7.06274C8.46285 6.46262 8.79999 5.64869 8.79999 4.8C8.79999 3.95131 8.46285 3.13737 7.86273 2.53726C7.26261 1.93714 6.44868 1.6 5.59999 1.6C4.75129 1.6 3.93736 1.93714 3.33725 2.53726C2.73713 3.13737 2.39999 3.95131 2.39999 4.8C2.39999 5.64869 2.73713 6.46262 3.33725 7.06274C3.93736 7.66286 4.75129 8 5.59999 8ZM5.59999 9.6C6.23033 9.6 6.85451 9.47584 7.43687 9.23462C8.01923 8.9934 8.54838 8.63983 8.9941 8.19411C9.43982 7.74839 9.79339 7.21924 10.0346 6.63688C10.2758 6.05452 10.4 5.43034 10.4 4.8C10.4 4.16965 10.2758 3.54548 10.0346 2.96312C9.79339 2.38076 9.43982 1.85161 8.9941 1.40589C8.54838 0.960166 8.01923 0.606601 7.43687 0.365379C6.85451 0.124156 6.23033 -9.39287e-09 5.59999 0C4.32695 1.89698e-08 3.10605 0.505713 2.20588 1.40589C1.3057 2.30606 0.799988 3.52696 0.799988 4.8C0.799988 6.07304 1.3057 7.29394 2.20588 8.19411C3.10605 9.09429 4.32695 9.6 5.59999 9.6Z" fill="#5D31FF"/>
<path id="Vector_2" fill-rule="evenodd" clip-rule="evenodd" d="M3.7664 7.83368C3.8409 7.908 3.90001 7.99628 3.94034 8.09347C3.98067 8.19066 4.00143 8.29485 4.00143 8.40008C4.00143 8.50531 3.98067 8.6095 3.94034 8.7067C3.90001 8.80389 3.8409 8.89217 3.7664 8.96648L3.2256 9.50568C2.18486 10.5467 1.60014 11.9584 1.6 13.4305V16.4001C1.6 16.6123 1.51571 16.8157 1.36569 16.9658C1.21566 17.1158 1.01217 17.2001 0.8 17.2001C0.587827 17.2001 0.384344 17.1158 0.234315 16.9658C0.0842854 16.8157 0 16.6123 0 16.4001V13.4305C0.000226815 11.5341 0.753577 9.7155 2.0944 8.37448L2.6336 7.83368C2.70791 7.75918 2.79619 7.70007 2.89339 7.65974C2.99058 7.61941 3.09477 7.59865 3.2 7.59865C3.30523 7.59865 3.40942 7.61941 3.50661 7.65974C3.60381 7.70007 3.69209 7.75918 3.7664 7.83368ZM22.6336 7.35368C22.5591 7.428 22.5 7.51628 22.4597 7.61347C22.4193 7.71066 22.3986 7.81485 22.3986 7.92008C22.3986 8.02531 22.4193 8.1295 22.4597 8.2267C22.5 8.32389 22.5591 8.41217 22.6336 8.48648L23.1744 9.02568C23.6898 9.5411 24.0986 10.153 24.3775 10.8264C24.6565 11.4998 24.8 12.2216 24.8 12.9505V16.4001C24.8 16.6123 24.8843 16.8157 25.0343 16.9658C25.1843 17.1158 25.3878 17.2001 25.6 17.2001C25.8122 17.2001 26.0157 17.1158 26.1657 16.9658C26.3157 16.8157 26.4 16.6123 26.4 16.4001V12.9505C26.3998 11.0541 25.6464 9.2355 24.3056 7.89448L23.7664 7.35368C23.6921 7.27918 23.6038 7.22007 23.5066 7.17974C23.4094 7.13941 23.3052 7.11865 23.2 7.11865C23.0948 7.11865 22.9906 7.13941 22.8934 7.17974C22.7962 7.22007 22.7079 7.27918 22.6336 7.35368Z" fill="#5D31FF"/>
<path id="Vector_3" fill-rule="evenodd" clip-rule="evenodd" d="M20 8C19.1513 8 18.3374 7.66286 17.7373 7.06274C17.1372 6.46263 16.8 5.64869 16.8 4.8C16.8 3.95131 17.1372 3.13737 17.7373 2.53726C18.3374 1.93714 19.1513 1.6 20 1.6C20.8487 1.6 21.6626 1.93714 22.2628 2.53726C22.8629 3.13737 23.2 3.95131 23.2 4.8C23.2 5.64869 22.8629 6.46263 22.2628 7.06274C21.6626 7.66286 20.8487 8 20 8ZM20 9.6C19.3697 9.6 18.7455 9.47585 18.1631 9.23462C17.5808 8.9934 17.0516 8.63983 16.6059 8.19411C16.1602 7.74839 15.8066 7.21924 15.5654 6.63688C15.3242 6.05452 15.2 5.43035 15.2 4.8C15.2 4.16965 15.3242 3.54548 15.5654 2.96312C15.8066 2.38076 16.1602 1.85161 16.6059 1.40589C17.0516 0.960166 17.5808 0.606601 18.1631 0.365379C18.7455 0.124156 19.3697 -9.39287e-09 20 0C21.2731 1.89698e-08 22.4939 0.505713 23.3941 1.40589C24.2943 2.30606 24.8 3.52696 24.8 4.8C24.8 6.07304 24.2943 7.29394 23.3941 8.19411C22.4939 9.09429 21.2731 9.6 20 9.6ZM12.8 14.8C11.7391 14.8 10.7217 15.2214 9.97159 15.9716C9.22144 16.7217 8.80001 17.7391 8.80001 18.8V20.88C8.80001 21.0922 8.71573 21.2957 8.5657 21.4457C8.41567 21.5957 8.21219 21.68 8.00001 21.68C7.78784 21.68 7.58436 21.5957 7.43433 21.4457C7.2843 21.2957 7.20001 21.0922 7.20001 20.88V18.8C7.20001 17.3148 7.79001 15.8904 8.84021 14.8402C9.89042 13.79 11.3148 13.2 12.8 13.2C14.2852 13.2 15.7096 13.79 16.7598 14.8402C17.81 15.8904 18.4 17.3148 18.4 18.8V20.88C18.4 21.0922 18.3157 21.2957 18.1657 21.4457C18.0157 21.5957 17.8122 21.68 17.6 21.68C17.3878 21.68 17.1844 21.5957 17.0343 21.4457C16.8843 21.2957 16.8 21.0922 16.8 20.88V18.8C16.8 18.2747 16.6965 17.7546 16.4955 17.2693C16.2945 16.784 15.9999 16.343 15.6284 15.9716C15.257 15.6001 14.816 15.3055 14.3307 15.1045C13.8454 14.9035 13.3253 14.8 12.8 14.8Z" fill="#5D31FF"/>
<path id="Vector_4" fill-rule="evenodd" clip-rule="evenodd" d="M12.8 12.3999C13.6487 12.3999 14.4626 12.0628 15.0627 11.4626C15.6629 10.8625 16 10.0486 16 9.1999C16 8.35121 15.6629 7.53728 15.0627 6.93716C14.4626 6.33704 13.6487 5.9999 12.8 5.9999C11.9513 5.9999 11.1374 6.33704 10.5373 6.93716C9.93714 7.53728 9.6 8.35121 9.6 9.1999C9.6 10.0486 9.93714 10.8625 10.5373 11.4626C11.1374 12.0628 11.9513 12.3999 12.8 12.3999ZM12.8 13.9999C14.073 13.9999 15.2939 13.4942 16.1941 12.594C17.0943 11.6938 17.6 10.4729 17.6 9.1999C17.6 7.92686 17.0943 6.70596 16.1941 5.80579C15.2939 4.90562 14.073 4.3999 12.8 4.3999C11.527 4.3999 10.3061 4.90562 9.40589 5.80579C8.50571 6.70596 8 7.92686 8 9.1999C8 10.4729 8.50571 11.6938 9.40589 12.594C10.3061 13.4942 11.527 13.9999 12.8 13.9999Z" fill="#5D31FF"/>
</g>
</svg>
