<svg width="36" height="36" viewBox="0 0 36 36" fill="none" xmlns="http://www.w3.org/2000/svg">
<g id="mingcute:face-line" clip-path="url(#clip0_97_1454)">
<g id="Group">
<path id="Vector" fill-rule="evenodd" clip-rule="evenodd" d="M11.6625 8.3595C10.2075 9.825 9.267 11.952 8.8875 14.5485C8.85662 14.7609 8.7805 14.9642 8.6643 15.1447C8.54811 15.3252 8.39453 15.4786 8.21394 15.5946C8.03336 15.7107 7.82998 15.7866 7.61753 15.8173C7.40509 15.848 7.18854 15.8327 6.9825 15.7725C6.5685 15.6525 6.309 16.0305 6.1785 16.3815C6.009 16.8375 5.958 17.499 6.1545 18.234C6.3255 18.8715 6.93 20.199 7.7895 20.1195C8.12471 20.0882 8.46069 20.1707 8.74338 20.3535C9.02607 20.5363 9.23903 20.809 9.348 21.1275C10.872 25.5855 14.6985 28.5 18 28.5C21.3015 28.5 25.128 25.5855 26.652 21.1275C26.7609 20.8079 26.9744 20.5343 27.2581 20.3511C27.5417 20.1679 27.8789 20.0858 28.215 20.118C29.0745 20.2005 29.6805 18.8715 29.8515 18.234C30.048 17.499 29.997 16.8375 29.8275 16.3815C29.6955 16.029 29.436 15.651 29.0205 15.7725C28.8144 15.8332 28.5976 15.8489 28.3849 15.8185C28.1722 15.7882 27.9685 15.7125 27.7876 15.5966C27.6067 15.4807 27.4528 15.3272 27.3363 15.1467C27.2198 14.9661 27.1435 14.7626 27.1125 14.55C26.733 11.9535 25.7925 9.825 24.3375 8.361C22.908 6.921 20.865 6 18 6C15.1365 6 13.092 6.9225 11.6625 8.3595ZM9.534 6.2445C11.589 4.1775 14.433 3 18 3C21.5685 3 24.4095 4.1775 26.466 6.246C28.2 7.9905 29.286 10.281 29.841 12.8055C29.9235 12.8205 30.006 12.84 30.087 12.8625C31.3905 13.2105 32.2305 14.2365 32.64 15.3375C33.0495 16.4415 33.0885 17.745 32.7495 19.011C32.274 20.7855 31.002 22.536 29.1465 23.0085C27.1185 27.885 22.629 31.5 18 31.5C13.3695 31.5 8.88 27.882 6.8535 23.007C5.001 22.5315 3.732 20.7825 3.2565 19.011C2.9175 17.745 2.9565 16.4415 3.366 15.336C3.7755 14.2365 4.6155 13.2105 5.919 12.861C5.9985 12.84 6.078 12.822 6.159 12.807C6.714 10.281 7.8 7.9905 9.534 6.2445Z" fill="#5D31FF"/>
</g>
</g>
<defs>
<clipPath id="clip0_97_1454">
<rect width="36" height="36" fill="white"/>
</clipPath>
</defs>
</svg>
