<svg width="28" height="28" viewBox="0 0 28 28" fill="none" xmlns="http://www.w3.org/2000/svg">
<g id="share">
<path id="Vector" fill-rule="evenodd" clip-rule="evenodd" d="M15.6313 4.56845C14.1534 3.41896 11.9999 4.47217 11.9999 6.3445V8.94345V9.435C11.8393 9.46051 11.6796 9.48905 11.5209 9.52055C5.82594 10.6514 1.5 15.6024 1.5 21.5936C1.50011 22.7266 2.31241 23.4549 3.07655 23.6699C3.8318 23.8824 4.8691 23.6927 5.47085 22.7808C6.79548 20.7734 9.10231 19.3316 12 18.8756V21.6555C12 23.5278 14.1534 24.581 15.6314 23.4315L25.4742 15.776C26.6323 14.8752 26.6323 13.1247 25.4742 12.2239L15.6313 4.56845ZM24.2463 13.8026L23.4693 13.1983L14.4034 6.14716C14.3858 6.13343 14.3672 6.12252 14.3482 6.11426C14.1905 6.04566 13.9999 6.15883 13.9999 6.3445V6.53388V11.0278C13.9999 11.1659 13.8872 11.2775 13.7492 11.2807C12.0549 11.3197 10.4598 11.753 9.0555 12.4909C6.69895 13.729 4.87933 15.8245 4.02845 18.3533C3.99338 18.4575 3.95996 18.5625 3.92821 18.6681C3.82176 19.0224 3.73415 19.3847 3.66652 19.7537C3.56368 20.3149 3.50704 20.8919 3.50062 21.4807C3.50021 21.5183 3.5 21.5559 3.5 21.5936C3.50002 21.7509 3.71488 21.8106 3.80154 21.6792C3.82045 21.6506 3.83951 21.622 3.85871 21.5936C4.17812 21.1205 4.53773 20.6771 4.93345 20.2656C5.19893 19.9896 5.48067 19.728 5.77747 19.4813C7.84225 17.7652 10.6357 16.7747 13.7495 16.7243C13.8876 16.722 14 16.8342 14 16.9722V21.6555C14 21.8635 14.2393 21.9805 14.4035 21.8528L24.2463 14.1973C24.375 14.0972 24.375 13.9027 24.2463 13.8026Z" fill="#5D31FF"/>
</g>
</svg>
