<svg width="26" height="26" viewBox="0 0 26 26" fill="none" xmlns="http://www.w3.org/2000/svg">
<g id="ph:bell-light">
<path id="Vector" d="M22.3509 17.9705C21.776 16.9813 20.9219 14.1913 20.9219 10.5625C20.9219 8.46149 20.0873 6.44653 18.6016 4.96089C17.116 3.47525 15.101 2.64062 13 2.64062C10.899 2.64063 8.88404 3.47525 7.3984 4.96089C5.91276 6.44653 5.07814 8.46149 5.07814 10.5625C5.07814 14.1923 4.22298 16.9813 3.64814 17.9705C3.52201 18.1864 3.45508 18.4319 3.45411 18.682C3.45314 18.9321 3.51816 19.178 3.6426 19.395C3.76704 19.6119 3.94651 19.7922 4.16289 19.9176C4.37927 20.0431 4.6249 20.1092 4.87501 20.1094H9.18939C9.33739 21.0127 9.80168 21.8341 10.4993 22.4267C11.197 23.0194 12.0826 23.3447 12.998 23.3447C13.9134 23.3447 14.799 23.0194 15.4966 22.4267C16.1943 21.8341 16.6586 21.0127 16.8066 20.1094H21.125C21.3749 20.1088 21.6203 20.0425 21.8364 19.9169C22.0525 19.7913 22.2317 19.611 22.3559 19.3941C22.4801 19.1772 22.5449 18.9314 22.5439 18.6815C22.5428 18.4315 22.4759 18.1863 22.3499 17.9705H22.3509ZM13 22.1406C12.4058 22.1404 11.829 21.9398 11.3629 21.5712C10.8968 21.2026 10.5686 20.6876 10.4315 20.1094H15.5685C15.4314 20.6876 15.1032 21.2026 14.6371 21.5712C14.1711 21.9398 13.5942 22.1404 13 22.1406ZM21.2987 18.7891C21.282 18.8202 21.257 18.8461 21.2266 18.864C21.1961 18.8819 21.1613 18.8911 21.126 18.8906H4.87501C4.83969 18.8911 4.80492 18.8819 4.77447 18.864C4.74403 18.8461 4.71908 18.8202 4.70235 18.7891C4.68453 18.7582 4.67514 18.7232 4.67514 18.6875C4.67514 18.6518 4.68453 18.6168 4.70235 18.5859C5.47118 17.2656 6.29689 14.1873 6.29689 10.5625C6.29689 8.78472 7.00311 7.07975 8.26019 5.82267C9.51727 4.56559 11.2222 3.85938 13 3.85938C14.7778 3.85938 16.4828 4.56559 17.7398 5.82267C18.9969 7.07975 19.7031 8.78472 19.7031 10.5625C19.7031 14.1863 20.5299 17.2605 21.2987 18.5859C21.3165 18.6168 21.3259 18.6518 21.3259 18.6875C21.3259 18.7232 21.3165 18.7582 21.2987 18.7891Z" fill="#5D31FF"/>
</g>
</svg>
